<?xml version="1.0" encoding="utf-8"?>
<!-- Generator: Adobe Illustrator 24.0.1, SVG Export Plug-In . SVG Version: 6.00 Build 0)  -->
<svg version="1.1" id="Calque_1" xmlns="http://www.w3.org/2000/svg" xmlns:xlink="http://www.w3.org/1999/xlink" x="0px" y="0px"
	 viewBox="0 0 85 85" style="enable-background:new 0 0 85 85;" xml:space="preserve">
<style type="text/css">
	.st0{fill:#FFFFFF;}
</style>
<g>
	<path class="st0" d="M14.2,43c0-0.3,0-0.6,0-0.9c0-0.3,0.1-0.5,0.1-0.8c0.1-1.1,0.2-2.3,0.4-3.4c1.2-6.9,4.5-12.6,9.8-17.1
		c4.9-4.1,10.6-6.3,16.9-6.5c0.3,0,0.5-0.1,0.8-0.1c0.2,0,0.4,0,0.7,0c0.2,0,0.5,0.1,0.7,0.1c1.3,0.1,2.7,0.2,4,0.4
		c5.2,0.9,9.8,3.1,13.7,6.6c7.6,7,10.8,15.6,9.2,25.8c-1.2,7.6-5,13.7-11.1,18.2C53,70.1,45.8,71.7,38,70.5
		c-6.9-1.1-12.6-4.4-17.1-9.7c-4.1-4.9-6.4-10.5-6.6-17C14.3,43.5,14.2,43.3,14.2,43z M38.3,52.5c0,2.3,0,4.6,0,6.9
		c0,0.7,0.2,0.9,0.9,0.9c1.6,0,3.3,0,4.9,0c0.7,0,0.9-0.2,0.9-0.9c0-3.3,0.1-6.5,0.1-9.8c0-1.3,0-2.7,0-4c0-0.4,0.1-0.6,0.6-0.6
		c1.4,0,2.7,0,4.1,0c1,0,1.3-0.3,1.4-1.2c0.2-1.5,0.3-3,0.5-4.5c0.1-0.9-0.3-1.3-1.2-1.3c-1.6,0-3.3,0-4.9,0c-0.3,0-0.5,0-0.5-0.4
		c0-1.3,0-2.5,0-3.8c0.1-2.2,0.9-2.9,3.1-2.9c0.7,0,1.5,0,2.2,0c0.7,0,1.2-0.4,1.2-1.1c0-1.3,0-2.7,0-4c0-0.7-0.4-1-1.1-1
		c-1.6,0-3.1,0-4.7,0c-1.7,0.1-3.2,0.6-4.5,1.6c-2,1.6-2.8,3.8-2.9,6.2c-0.1,1.6,0,3.3,0,4.9c0,0.4-0.1,0.5-0.5,0.5
		c-1,0-1.9,0-2.9,0c-1.1,0-1.5,0.3-1.5,1.4c0,1.5,0,2.9,0.1,4.4c0,0.8,0.3,1.2,1.1,1.2c1,0,2,0,3,0c0.5,0,0.6,0.2,0.6,0.6
		C38.3,47.9,38.3,50.2,38.3,52.5z"/>
</g>
</svg>
